<svg xmlns="http://www.w3.org/2000/svg" viewBox="0 0 256 256" width="256" height="256">
  <defs>
    <linearGradient id="g" x1="0%" y1="0%" x2="100%" y2="100%">
      <stop offset="0%" style="stop-color:#5be37b"/>
      <stop offset="100%" style="stop-color:#2ecc71"/>
    </linearGradient>
    <linearGradient id="g2" x1="100%" y1="0%" x2="0%" y2="100%">
      <stop offset="0%" style="stop-color:#7bed9f"/>
      <stop offset="100%" style="stop-color:#5be37b"/>
    </linearGradient>
  </defs>
  <rect width="256" height="256" rx="48" fill="#0b0b12"/>
  <rect x="12" y="12" width="232" height="232" rx="40" fill="none" stroke="url(#g)" stroke-width="3" opacity="0.3"/>
  <polygon points="128,48 200,88 200,168 128,208 56,168 56,88" fill="url(#g)" opacity="0.15"/>
  <polygon points="128,48 200,88 200,168 128,208 56,168 56,88" fill="none" stroke="url(#g)" stroke-width="5" stroke-linejoin="round"/>
  <polygon points="128,72 176,100 176,156 128,184 80,156 80,100" fill="none" stroke="url(#g2)" stroke-width="4" stroke-linejoin="round"/>
  <polygon points="128,96 152,110 152,146 128,160 104,146 104,110" fill="url(#g)" opacity="0.3"/>
  <polygon points="128,96 152,110 152,146 128,160 104,146 104,110" fill="none" stroke="url(#g)" stroke-width="3" stroke-linejoin="round"/>
  <line x1="128" y1="48" x2="128" y2="72" stroke="url(#g)" stroke-width="4" stroke-linecap="round"/>
  <line x1="200" y1="88" x2="176" y2="100" stroke="url(#g)" stroke-width="4" stroke-linecap="round"/>
  <line x1="200" y1="168" x2="176" y2="156" stroke="url(#g)" stroke-width="4" stroke-linecap="round"/>
  <line x1="56" y1="88" x2="80" y2="100" stroke="url(#g)" stroke-width="4" stroke-linecap="round"/>
  <line x1="56" y1="168" x2="80" y2="156" stroke="url(#g)" stroke-width="4" stroke-linecap="round"/>
</svg>
